<svg width="66" height="66" viewBox="0 0 66 66" fill="none" xmlns="http://www.w3.org/2000/svg">
<path opacity="0.4" d="M44.5227 24.3646C43.4502 24.3646 42.5977 23.5121 42.5977 22.4396V18.9196C42.5977 16.2246 41.4427 13.6396 39.4627 11.8246C37.4277 9.9821 34.8152 9.1296 32.0652 9.3771C27.4452 9.8171 23.4027 14.5196 23.4027 19.4146V21.8896C23.4027 22.9621 22.5502 23.8146 21.4777 23.8146C20.4052 23.8146 19.5527 22.9621 19.5527 21.8896V19.4146C19.5527 12.5396 25.1077 6.1871 31.6802 5.5546C35.5027 5.1971 39.1877 6.4071 42.0202 8.9921C44.8252 11.5221 46.4202 15.1521 46.4202 18.9196V22.4396C46.4202 23.5121 45.5677 24.3646 44.5227 24.3646Z" fill="white"/>
<path d="M54.8903 24.6397C52.5803 22.0822 48.7853 20.8447 43.2303 20.8447H22.7703C17.2153 20.8447 13.4203 22.0822 11.1103 24.6397C8.44278 27.6097 8.52528 31.5697 8.82778 34.3197L10.7528 49.6372C11.3303 54.9997 13.5028 60.4997 25.3278 60.4997H40.6728C52.4978 60.4997 54.6703 54.9997 55.2478 49.6647L57.1728 34.2922C57.4753 31.5697 57.5303 27.6097 54.8903 24.6397ZM23.1553 36.1622H23.1278C21.6153 36.1622 20.3778 34.9247 20.3778 33.4122C20.3778 31.8997 21.6153 30.6622 23.1278 30.6622C24.6678 30.6622 25.9053 31.8997 25.9053 33.4122C25.9053 34.9247 24.6678 36.1622 23.1553 36.1622ZM42.4053 36.1622H42.3778C40.8653 36.1622 39.6278 34.9247 39.6278 33.4122C39.6278 31.8997 40.8653 30.6622 42.3778 30.6622C43.9178 30.6622 45.1553 31.8997 45.1553 33.4122C45.1553 34.9247 43.9178 36.1622 42.4053 36.1622Z" fill="white"/>
</svg>
