<svg width="66" height="66" viewBox="0 0 66 66" fill="none" xmlns="http://www.w3.org/2000/svg">
<path opacity="0.4" d="M53.2121 15.5649L35.9146 6.2425C34.0996 5.2525 31.8996 5.2525 30.0571 6.2425L12.7597 15.5649C11.4947 16.2524 10.7246 17.6 10.7246 19.085C10.7246 20.57 11.4947 21.9174 12.7597 22.6049L30.0571 31.9274C30.9646 32.4224 31.9821 32.67 32.9721 32.67C33.9621 32.67 34.9796 32.4224 35.8871 31.9274L53.1846 22.6049C54.4496 21.9174 55.2196 20.57 55.2196 19.085C55.2746 17.6 54.4771 16.2524 53.2121 15.5649Z" fill="white"/>
<path opacity="0.4" d="M27.2254 35.172L11.1379 27.1146C9.90043 26.4821 8.47045 26.5646 7.28795 27.2796C6.10545 27.9946 5.41797 29.2596 5.41797 30.6346V45.8421C5.41797 48.4821 6.87543 50.8471 9.24043 52.0296L25.3279 60.0597C25.8779 60.3347 26.483 60.4721 27.088 60.4721C27.803 60.4721 28.518 60.2797 29.1505 59.8672C30.333 59.1522 31.0205 57.8871 31.0205 56.5121V41.3047C31.048 38.7197 29.5904 36.3545 27.2254 35.172Z" fill="white"/>
<path opacity="0.4" d="M60.5822 30.6626V43.285C60.5547 43.2575 60.5272 43.2025 60.4997 43.175C60.4997 43.1475 60.4722 43.1199 60.4447 43.0924C60.3347 42.9274 60.1972 42.7625 60.0597 42.625C60.0322 42.5975 60.0047 42.5426 59.9772 42.5151C57.7497 40.0401 54.4772 38.5 50.8747 38.5C47.4097 38.5 44.2471 39.93 41.9921 42.24C39.8196 44.4675 38.4997 47.52 38.4997 50.875C38.4997 53.185 39.1597 55.385 40.2872 57.255C40.7547 58.0525 41.3322 58.7675 41.9647 59.4275L40.6722 60.0874C40.1222 60.3624 39.5172 60.5 38.9122 60.5C38.1972 60.5 37.4822 60.3076 36.8222 59.8951C35.6672 59.1801 34.9521 57.915 34.9521 56.54V41.3599C34.9521 38.7199 36.4097 36.3549 38.7747 35.1724L54.8622 27.1425C56.0997 26.51 57.5297 26.565 58.7122 27.3075C59.8672 28.0225 60.5822 29.2876 60.5822 30.6626Z" fill="white"/>
<path d="M60.445 43.0921C58.19 40.3146 54.7525 38.5547 50.875 38.5547C47.96 38.5547 45.265 39.5722 43.1475 41.2772C40.2875 43.5322 38.5 47.0247 38.5 50.9297C38.5 53.2397 39.16 55.4397 40.2875 57.3097C41.03 58.5472 41.965 59.6196 43.065 60.4996H43.0925C45.21 62.2596 47.9325 63.3047 50.875 63.3047C54.01 63.3047 56.8425 62.1497 59.015 60.2247C59.9775 59.3997 60.8025 58.4097 61.4625 57.3097C62.59 55.4397 63.25 53.2397 63.25 50.9297C63.25 47.9597 62.205 45.2096 60.445 43.0921ZM57.09 49.3897L50.49 55.4946C50.105 55.8521 49.5825 56.0446 49.0875 56.0446C48.565 56.0446 48.0425 55.8521 47.63 55.4396L44.5775 52.3871C43.78 51.5896 43.78 50.2696 44.5775 49.4721C45.375 48.6746 46.695 48.6746 47.4925 49.4721L49.1425 51.1222L54.285 46.3646C55.11 45.5946 56.43 45.6497 57.2 46.4747C57.9975 47.3272 57.9425 48.6197 57.09 49.3897Z" fill="white"/>
</svg>
