<svg width="19" height="19" viewBox="0 0 19 19" fill="none" xmlns="http://www.w3.org/2000/svg">
<path opacity="0.4" d="M12.8168 1.58301H6.18259C3.30092 1.58301 1.58301 3.30092 1.58301 6.18259V12.8088C1.58301 15.6984 3.30092 17.4163 6.18259 17.4163H12.8088C15.6905 17.4163 17.4084 15.6984 17.4084 12.8168V6.18259C17.4163 3.30092 15.6984 1.58301 12.8168 1.58301Z" fill="#2C2C2C"/>
<path d="M16.8622 9.68164H14.1072C13.3313 9.68164 12.6426 10.1091 12.2943 10.8058L11.6293 12.12C11.4709 12.4366 11.1543 12.6346 10.8059 12.6346H8.20926C7.96384 12.6346 7.61551 12.5791 7.38592 12.12L6.72092 10.8137C6.37259 10.125 5.67592 9.68956 4.90801 9.68956H2.13717C1.82842 9.68956 1.58301 9.93497 1.58301 10.2437V12.8246C1.58301 15.6983 3.30884 17.4162 6.19051 17.4162H12.8247C15.5401 17.4162 17.2105 15.9279 17.4163 13.2837V10.2358C17.4163 9.93497 17.1709 9.68164 16.8622 9.68164Z" fill="#2C2C2C"/>
<path d="M10.7271 6.17474H8.27292C7.96417 6.17474 7.71875 5.92932 7.71875 5.62057C7.71875 5.31182 7.96417 5.06641 8.27292 5.06641H10.7271C11.0358 5.06641 11.2812 5.31182 11.2812 5.62057C11.2812 5.92932 11.0279 6.17474 10.7271 6.17474Z" fill="#2C2C2C"/>
<path d="M11.3449 8.38372H7.65573C7.34698 8.38372 7.10156 8.13831 7.10156 7.82956C7.10156 7.52081 7.34698 7.27539 7.65573 7.27539H11.337C11.6457 7.27539 11.8911 7.52081 11.8911 7.82956C11.8911 8.13831 11.6457 8.38372 11.3449 8.38372Z" fill="#2C2C2C"/>
</svg>
