<svg width="19" height="19" viewBox="0 0 19 19" fill="none" xmlns="http://www.w3.org/2000/svg">
<path opacity="0.4" d="M17.4167 6.74516V3.151C17.4167 2.03475 16.91 1.5835 15.6512 1.5835H12.4529C11.1942 1.5835 10.6875 2.03475 10.6875 3.151V6.73725C10.6875 7.86141 11.1942 8.30475 12.4529 8.30475H15.6512C16.91 8.31266 17.4167 7.86141 17.4167 6.74516Z" fill="#2C2C2C"/>
<path d="M17.4167 15.6512V12.4529C17.4167 11.1942 16.91 10.6875 15.6512 10.6875H12.4529C11.1942 10.6875 10.6875 11.1942 10.6875 12.4529V15.6512C10.6875 16.91 11.1942 17.4167 12.4529 17.4167H15.6512C16.91 17.4167 17.4167 16.91 17.4167 15.6512Z" fill="#2C2C2C"/>
<path d="M8.31217 6.74516V3.151C8.31217 2.03475 7.80551 1.5835 6.54676 1.5835H3.34842C2.08967 1.5835 1.58301 2.03475 1.58301 3.151V6.73725C1.58301 7.86141 2.08967 8.30475 3.34842 8.30475H6.54676C7.80551 8.31266 8.31217 7.86141 8.31217 6.74516Z" fill="#2C2C2C"/>
<path opacity="0.4" d="M8.31217 15.6512V12.4529C8.31217 11.1942 7.80551 10.6875 6.54676 10.6875H3.34842C2.08967 10.6875 1.58301 11.1942 1.58301 12.4529V15.6512C1.58301 16.91 2.08967 17.4167 3.34842 17.4167H6.54676C7.80551 17.4167 8.31217 16.91 8.31217 15.6512Z" fill="#2C2C2C"/>
</svg>
