<svg width="19" height="19" viewBox="0 0 19 19" fill="none" xmlns="http://www.w3.org/2000/svg">
<path opacity="0.4" d="M7.12467 1.58301C5.05051 1.58301 3.36426 3.26926 3.36426 5.34342C3.36426 7.37801 4.95551 9.02467 7.02968 9.09592C7.09301 9.08801 7.15634 9.08801 7.20384 9.09592C7.21968 9.09592 7.22759 9.09592 7.24342 9.09592C7.25134 9.09592 7.25134 9.09592 7.25926 9.09592C9.28592 9.02467 10.8772 7.37801 10.8851 5.34342C10.8851 3.26926 9.19884 1.58301 7.12467 1.58301Z" fill="#2C2C2C"/>
<path d="M11.1468 11.202C8.93801 9.72953 5.33592 9.72953 3.11134 11.202C2.10592 11.8749 1.55176 12.7854 1.55176 13.7591C1.55176 14.7329 2.10592 15.6354 3.10342 16.3004C4.21176 17.0445 5.66842 17.4166 7.12509 17.4166C8.58176 17.4166 10.0384 17.0445 11.1468 16.3004C12.1443 15.6274 12.6984 14.7249 12.6984 13.7433C12.6905 12.7695 12.1443 11.867 11.1468 11.202Z" fill="#2C2C2C"/>
<path opacity="0.4" d="M15.8259 5.81132C15.9526 7.34715 14.8601 8.69299 13.348 8.87507C13.3401 8.87507 13.3401 8.87507 13.3321 8.87507H13.3084C13.2609 8.87507 13.2134 8.87507 13.1738 8.8909C12.4059 8.93049 11.7013 8.68507 11.1709 8.23382C11.9863 7.50549 12.4534 6.41299 12.3584 5.22549C12.303 4.58424 12.0813 3.9984 11.7488 3.49965C12.0496 3.34924 12.398 3.25424 12.7542 3.22257C14.3059 3.08799 15.6913 4.24382 15.8259 5.81132Z" fill="#2C2C2C"/>
<path d="M17.4085 13.1337C17.3452 13.9017 16.8544 14.5667 16.031 15.0179C15.2394 15.4533 14.2419 15.6592 13.2523 15.6354C13.8223 15.1208 14.1548 14.4796 14.2181 13.7987C14.2973 12.8171 13.8302 11.875 12.896 11.1229C12.3656 10.7033 11.7481 10.3708 11.0752 10.1254C12.8248 9.61874 15.0256 9.95915 16.3794 11.0517C17.1077 11.6375 17.4798 12.3737 17.4085 13.1337Z" fill="#2C2C2C"/>
</svg>
