<svg width="66" height="66" viewBox="0 0 66 66" fill="none" xmlns="http://www.w3.org/2000/svg">
<path d="M16.5 35.75C8.91 35.75 2.75 41.8825 2.75 49.5C2.75 57.1175 8.91 63.25 16.5 63.25C24.09 63.25 30.25 57.09 30.25 49.5C30.25 41.91 24.1175 35.75 16.5 35.75ZM10.89 43.89H16.5C17.545 43.89 18.37 44.7425 18.37 45.76C18.37 46.7775 17.5175 47.63 16.5 47.63H10.89C9.84498 47.63 9.02 46.7775 9.02 45.76C9.02 44.7425 9.84498 43.89 10.89 43.89ZM22.11 55.11H10.8625C9.81753 55.11 8.99247 54.2575 8.99247 53.24C8.99247 52.2225 9.84503 51.37 10.8625 51.37H22.11C23.155 51.37 23.98 52.2225 23.98 53.24C23.98 54.2575 23.155 55.11 22.11 55.11Z" fill="white"/>
<path opacity="0.4" d="M46.75 8.25H19.25C11 8.25 5.5 12.375 5.5 22V30.635C5.5 32.6425 7.56254 33.9075 9.40504 33.11C12.43 31.79 15.8675 31.295 19.47 31.8725C26.675 33.055 32.56 38.7475 34.0175 45.8975C34.43 47.9875 34.485 50.0225 34.21 51.975C33.99 53.5975 35.31 55.0275 36.9325 55.0275H46.75C55 55.0275 60.5 50.9025 60.5 41.2775V22.0275C60.5 12.375 55 8.25 46.75 8.25Z" fill="white"/>
<path d="M32.9996 32.6429C30.6896 32.6429 28.3521 31.9279 26.5646 30.4704L17.9571 23.5954C17.0771 22.8804 16.9121 21.5879 17.6271 20.7079C18.3421 19.8279 19.6346 19.6629 20.5146 20.3779L29.1221 27.2529C31.2121 28.9304 34.7596 28.9304 36.8496 27.2529L45.4571 20.3779C46.3371 19.6629 47.6571 19.8004 48.3446 20.7079C49.0596 21.5879 48.9221 22.9079 48.0146 23.5954L39.4071 30.4704C37.6471 31.9279 35.3096 32.6429 32.9996 32.6429Z" fill="white"/>
</svg>
