<svg width="19" height="19" viewBox="0 0 19 19" fill="none" xmlns="http://www.w3.org/2000/svg">
<path opacity="0.4" d="M4.54456 12.6663C4.63165 12.2784 4.47331 11.7243 4.19623 11.4472L2.27248 9.52342C1.67081 8.92176 1.43331 8.28051 1.60748 7.72634C1.78956 7.17217 2.35165 6.79217 3.19081 6.64967L5.66081 6.23801C6.01706 6.17467 6.45248 5.85801 6.61873 5.53342L7.9804 2.80217C8.37623 2.01842 8.91456 1.58301 9.5004 1.58301C10.0862 1.58301 10.6246 2.01842 11.0204 2.80217L12.3821 5.53342C12.485 5.73926 12.6987 5.93717 12.9283 6.07176L4.40206 14.598C4.29123 14.7088 4.10123 14.6059 4.1329 14.4476L4.54456 12.6663Z" fill="#2C2C2C"/>
<path d="M14.8043 11.447C14.5193 11.732 14.361 12.2783 14.456 12.6662L15.0022 15.0491C15.2318 16.0387 15.0893 16.7828 14.5985 17.1391C14.4005 17.2816 14.163 17.3528 13.886 17.3528C13.4822 17.3528 13.0072 17.2024 12.4847 16.8937L10.1651 15.5162C9.80096 15.3024 9.1993 15.3024 8.83513 15.5162L6.51555 16.8937C5.6368 17.4083 4.88471 17.4953 4.4018 17.1391C4.21971 17.0045 4.08513 16.8224 3.99805 16.5849L13.6247 6.95826C13.9889 6.5941 14.5035 6.42784 15.0022 6.51493L15.8018 6.64951C16.641 6.79201 17.203 7.17201 17.3851 7.72618C17.5593 8.28035 17.3218 8.9216 16.7201 9.52326L14.8043 11.447Z" fill="#2C2C2C"/>
</svg>
