<svg width="19" height="19" viewBox="0 0 19 19" fill="none" xmlns="http://www.w3.org/2000/svg">
<path opacity="0.4" d="M17.4163 6.18259V12.8168C17.4163 15.0413 16.3951 16.5692 14.598 17.1472C14.0755 17.3292 13.4738 17.4163 12.8168 17.4163H6.18259C5.52551 17.4163 4.92384 17.3292 4.40134 17.1472C2.60426 16.5692 1.58301 15.0413 1.58301 12.8168V6.18259C1.58301 3.30092 3.30092 1.58301 6.18259 1.58301H12.8168C15.6984 1.58301 17.4163 3.30092 17.4163 6.18259Z" fill="#2C2C2C"/>
<path d="M14.598 17.1475C14.0755 17.3296 13.4739 17.4167 12.8168 17.4167H6.18262C5.52553 17.4167 4.92387 17.3296 4.40137 17.1475C4.67845 15.0575 6.86345 13.4346 9.4997 13.4346C12.136 13.4346 14.321 15.0575 14.598 17.1475Z" fill="#2C2C2C"/>
<path d="M12.3344 9.16719C12.3344 10.7347 11.0677 12.0092 9.50018 12.0092C7.93268 12.0092 6.66602 10.7347 6.66602 9.16719C6.66602 7.59969 7.93268 6.33301 9.50018 6.33301C11.0677 6.33301 12.3344 7.59969 12.3344 9.16719Z" fill="#2C2C2C"/>
</svg>
