<svg width="19" height="19" viewBox="0 0 19 19" fill="none" xmlns="http://www.w3.org/2000/svg">
<path opacity="0.4" d="M14.282 10.7274C13.9495 11.052 13.7595 11.5191 13.807 12.0178C13.8782 12.8728 14.662 13.4982 15.517 13.4982H17.0212V14.4403C17.0212 16.0791 15.6832 17.417 14.0445 17.417H4.95616C3.31741 17.417 1.97949 16.0791 1.97949 14.4403V9.11242C1.97949 7.47367 3.31741 6.13574 4.95616 6.13574H14.0445C15.6832 6.13574 17.0212 7.47367 17.0212 9.11242V10.2524H15.422C14.9787 10.2524 14.5749 10.4266 14.282 10.7274Z" fill="#2C2C2C"/>
<path d="M11.7566 3.12688V6.1352H4.95616C3.31741 6.1352 1.97949 7.47312 1.97949 9.11187V6.20647C1.97949 5.26439 2.55741 4.42519 3.43616 4.09269L9.72199 1.71769C10.7037 1.35352 11.7566 2.07396 11.7566 3.12688Z" fill="#2C2C2C"/>
<path d="M17.8604 11.0594V12.6903C17.8604 13.1257 17.512 13.4819 17.0687 13.4978H15.517C14.662 13.4978 13.8783 12.8724 13.807 12.0174C13.7595 11.5186 13.9495 11.0515 14.282 10.7269C14.5749 10.4261 14.9787 10.252 15.422 10.252H17.0687C17.512 10.2678 17.8604 10.624 17.8604 11.0594Z" fill="#2C2C2C"/>
<path d="M11.0837 10.0938H5.54199C5.21741 10.0938 4.94824 9.82458 4.94824 9.5C4.94824 9.17542 5.21741 8.90625 5.54199 8.90625H11.0837C11.4082 8.90625 11.6774 9.17542 11.6774 9.5C11.6774 9.82458 11.4082 10.0938 11.0837 10.0938Z" fill="#2C2C2C"/>
</svg>
