<svg width="19" height="19" viewBox="0 0 19 19" fill="none" xmlns="http://www.w3.org/2000/svg">
<path opacity="0.4" d="M8.51004 1.93918C9.05629 1.4721 9.95087 1.4721 10.505 1.93918L11.7559 3.01585C11.9934 3.22168 12.4367 3.38793 12.7534 3.38793H14.0992C14.9384 3.38793 15.6271 4.07668 15.6271 4.91585V6.26168C15.6271 6.57043 15.7934 7.02168 15.9992 7.25918L17.0759 8.51001C17.543 9.05626 17.543 9.95085 17.0759 10.505L15.9992 11.7558C15.7934 11.9933 15.6271 12.4367 15.6271 12.7533V14.0992C15.6271 14.9383 14.9384 15.6271 14.0992 15.6271H12.7534C12.4446 15.6271 11.9934 15.7933 11.7559 15.9992L10.505 17.0758C9.95879 17.5429 9.06421 17.5429 8.51004 17.0758L7.25921 15.9992C7.02171 15.7933 6.57837 15.6271 6.26171 15.6271H4.89212C4.05296 15.6271 3.36421 14.9383 3.36421 14.0992V12.7454C3.36421 12.4367 3.19796 11.9933 3.00004 11.7558L1.93129 10.4971C1.47212 9.95085 1.47212 9.06418 1.93129 8.51793L3.00004 7.25918C3.19796 7.02168 3.36421 6.57835 3.36421 6.2696V4.90793C3.36421 4.06876 4.05296 3.38001 4.89212 3.38001H6.26171C6.57046 3.38001 7.02171 3.21376 7.25921 3.00793L8.51004 1.93918Z" fill="#2C2C2C"/>
<path d="M8.54178 12.0093C8.38345 12.0093 8.23303 11.9459 8.1222 11.8351L6.20637 9.91927C5.97678 9.68969 5.97678 9.30969 6.20637 9.0801C6.43595 8.85052 6.81595 8.85052 7.04553 9.0801L8.54178 10.5764L11.946 7.17219C12.1755 6.9426 12.5555 6.9426 12.7851 7.17219C13.0147 7.40177 13.0147 7.78177 12.7851 8.01135L8.96137 11.8351C8.85053 11.9459 8.70012 12.0093 8.54178 12.0093Z" fill="#2C2C2C"/>
</svg>
